<?xml version="1.0" encoding="utf-8"?>
<!-- Generator: Adobe Illustrator 28.0.0, SVG Export Plug-In . SVG Version: 6.00 Build 0)  -->
<svg version="1.1" id="Capa_1" xmlns="http://www.w3.org/2000/svg" xmlns:xlink="http://www.w3.org/1999/xlink" x="0px" y="0px"
	 viewBox="0 0 348.5 183.8" style="enable-background:new 0 0 348.5 183.8;" xml:space="preserve">
<style type="text/css">
	.st0{display:none;}
	.st1{fill:#3B4394;}
	.st2{fill:#5EC5EB;}
	.st3{opacity:0.26;fill:#3B4394;enable-background:new    ;}
</style>
<g id="Capa_1_00000129195167639047930780000003625825204636992168_" class="st0">
</g>
<g id="Capa_3">
	<path class="st1" d="M110.6,70.1l-6.6,25.4h-4.6l8.6-29.6h3L110.6,70.1z M116.7,84.7l-0.3,4.1h-13.8l0.3-4.1H116.7z M116.1,95.5
		l-6.7-25.4l-0.3-4.2h2.9l8.8,29.6H116.1z"/>
	<path class="st1" d="M133.8,82h-6.5v-3.2h5.7c1,0,1.1-0.2,1.7-0.5c0.6-0.3,1.3-1,1.6-1.5c0.3-0.6,0.4-1.7,0.4-2.5
		c0-1,0-1.9-0.3-2.6c-0.3-0.6-0.9-1.2-1.5-1.5c-0.6-0.2-0.8-0.4-1.9-0.4h-4L129,95.4h-4.7V65.8h8.7c1.4,0,1.7,0.1,2.8,0.4
		c1.1,0.3,1.9,0.6,2.7,1.3c0.8,0.6,1.5,1.3,1.9,2.3c0.4,1,0.6,3.1,0.6,4.5c0,1.2-0.1,2.4-0.6,3.3c-0.5,1-0.7,1.4-1.7,2
		c-1,0.6-1.9,1.1-3.3,1.1L133.8,82z M133.7,95.5h-7.6l2-3.5h5.7c1,0,1.7-0.4,2.4-0.8c0.6-0.4,0.9-0.9,1.2-1.5s0.5-1.9,0.5-2.8
		c0-1-0.2-1.8-0.4-2.4c-0.3-0.7-0.8-1.5-1.4-1.9c-0.6-0.4-1.1-0.4-2.1-0.4h-4.9v-3.2h5.7l1.7,0.9c1.4,0.1,2.2,0.6,3.1,1.3
		s1.5,1.5,2,2.5c0.4,1.1,0.6,2.1,0.6,3.3c0,1.9-0.4,3.2-1,4.5c-0.6,1.5-1.5,2.6-2.8,3.2C137.1,95.3,135.5,95.5,133.7,95.5z"/>
	<path class="st1" d="M160.7,87.6c0-0.6-0.1-1.1-0.2-1.6c-0.2-0.5-0.4-0.9-0.8-1.3c-0.4-0.4-1-0.7-1.6-1.1c-0.6-0.4-1.6-0.7-2.7-1.1
		c-1.2-0.4-2.3-0.9-3.3-1.4c-1-0.5-1.9-1.1-2.6-1.9s-1.3-1.5-1.7-2.4c-0.4-0.9-0.6-1.9-0.6-3.2s0.2-2.3,0.6-3.2s1.1-1.8,1.9-2.5
		s1.7-1.3,2.8-1.6c1.1-0.4,2.3-0.6,3.6-0.6c1.9,0,3.5,0.4,4.8,1.2s2.4,1.9,3.1,3.2c0.7,1.3,0.6,2.6,0.6,4.2h-4c0-1-0.1-1.5-0.4-2.3
		s-0.9-1.3-1.6-1.7c-0.7-0.4-1.6-0.6-2.7-0.6c-1.1,0-1.9,0.2-2.5,0.6c-0.6,0.4-1.2,0.8-1.5,1.5c-0.3,0.6-0.5,1.3-0.5,2
		c0,0.6,0.1,1.1,0.3,1.5c0.2,0.4,0.6,0.9,1,1.2c0.5,0.4,1,0.7,1.7,1.1c0.6,0.3,1.5,0.6,2.4,1c1.4,0.5,2.6,1,3.6,1.5
		c1.1,0.6,1.9,1.2,2.6,1.9c0.7,0.7,1.2,1.5,1.5,2.4c0.3,0.9,0.5,1.9,0.5,3.2s-0.2,2.4-0.6,3.3c-0.4,1-1.1,1.8-1.8,2.5
		s-1.7,1.2-2.8,1.5c-1.1,0.3-2.4,0.6-3.6,0.6c-1.2,0-2.4-0.2-3.6-0.6c-1.2-0.4-2.2-1-3.2-1.7c-1-0.7-1.7-1.7-2.3-2.8
		c-0.6-1.1-0.4-2.4-0.4-3.9h4.1c0,1,0,1.6,0.2,2.4c0.2,0.6,0.6,1.2,1.2,1.6c0.5,0.4,1.1,0.7,1.8,0.9c0.6,0.2,1.4,0.3,2.2,0.3
		c1,0,1.9-0.2,2.5-0.5c0.6-0.3,1.2-0.8,1.5-1.4C160.6,89.1,160.7,88.4,160.7,87.6z"/>
	<polygon class="st2" points="173.5,114.4 172.9,117.3 176.1,117.3 176.6,114.4 	"/>
	<polygon class="st2" points="237.3,114.4 236.6,117.3 239.8,117.3 240.3,114.4 	"/>
</g>
<g id="Capa_2_00000092457730416521843280000017350214195004530875_">
	<path class="st3" d="M180.4,75.6c-0.2,0.1-0.3,0.1-0.5,0.2v-0.1C180.1,75.7,180.3,75.7,180.4,75.6z"/>
	<path class="st3" d="M180.5,95.9c-0.2,0-0.4-0.1-0.6-0.2v-0.1C180.1,95.8,180.4,95.9,180.5,95.9z"/>
	<path class="st3" d="M178.9,90.6c-0.1-0.2-0.1-0.6-0.1-0.8c0,0,0-0.1,0-0.2C178.8,90,178.9,90.3,178.9,90.6z"/>
	<path class="st1" d="M204.9,84.3v3.3c0,1.4-0.2,2.6-0.5,3.6c-0.3,1.1-0.8,1.9-1.4,2.6c-0.6,0.7-1.4,1.2-2.2,1.5
		c-0.9,0.3-1.9,0.5-2.9,0.5c-1.1,0-2-0.2-2.8-0.5c-0.9-0.3-1.6-0.9-2.2-1.5c-0.6-0.7-1.1-1.5-1.5-2.6c-0.3-1.1-0.5-2.3-0.5-3.6v-3.3
		c0-1.4,0-2.7,0.4-3.7c0.3-1.1,0.8-1.9,1.5-2.7c0.6-0.7,1.4-1.2,2.2-1.6c0.9-0.3,1.9-0.5,3-0.5c1.1,0,2,0,2.9,0.3
		c0.9,0.3,1.6,0.9,2.2,1.6c0.6,0.7,1.1,1.6,1.5,2.7C204.8,81.5,204.9,82.8,204.9,84.3z M201.3,87.5v-3.3c0-1,0.1-1.9-0.1-2.6
		s-0.2-1.2-0.6-1.7c-0.3-0.5-0.7-0.8-1.1-1c-0.5-0.2-1-0.3-1.5-0.3c-0.6,0-1.1,0.1-1.5,0.3c-0.5,0.2-0.8,0.6-1.1,1
		c-0.3,0.5-0.3,1-0.5,1.6c-0.2,0.7-0.1,1.6-0.1,2.6v3.3c0,1-0.2,1.9,0,2.7c0.2,0.7,0.2,1.2,0.6,1.6c0.3,0.4,0.7,0.8,1.2,1
		c0.5,0.2,1,0.3,1.5,0.3c0.6,0,1.1-0.1,1.6-0.3c0.5-0.2,0.8-0.6,1.1-1c0.3-0.4,0.4-0.9,0.6-1.6C201.4,89.6,201.3,88.5,201.3,87.5z"
		/>
	<path class="st1" d="M185.4,89.8c-0.2,0.6,0,1.5-0.3,1.9c-0.3,0.4-0.7,0.8-1.1,1c-0.5,0.2-1,0.3-1.6,0.3c-0.6,0-1.1-0.1-1.5-0.3
		c-0.5-0.2-0.8-0.6-1.2-1c-0.3-0.4-0.4-0.9-0.6-1.6s0-1.7,0-2.7v-3.3c0-1-0.1-1.9,0.1-2.6c0.2-0.7,0.2-1.2,0.5-1.6
		c0.3-0.4,0.7-0.8,1.1-1c0.5-0.2,1-0.3,1.5-0.3c0.6,0,1.1,0.1,1.5,0.3c0.5,0.2,0.8,0.6,1.1,1c0.3,0.4,0.1,0.7,0.2,1.5l3.2,0.1
		c0-1.5-0.4-3.1-1.1-3.7c-0.6-0.7-1.4-1.2-2.2-1.6c-0.9-0.3-1.9-0.3-2.9-0.3c-1.1,0-2.1,0.1-3,0.5c-0.9,0.3-1.6,0.9-2.2,1.6
		c-0.6,0.7-1.1,1.6-1.5,2.7c-0.3,1.1-0.4,2.4-0.4,3.7v3.3c0,1.4,0.2,2.6,0.5,3.6c0.3,1.1,0.8,1.9,1.5,2.6c0.6,0.6,1.4,1.2,2.2,1.5
		c0.9,0.3,1.8,0.5,2.8,0.5s2-0.2,2.9-0.5c0.9-0.3,1.6-0.9,2.2-1.5c0.6-0.7,1.2-2.7,1.1-3.9"/>
	<path class="st1" d="M92.4,86.6c-0.2,1,0,2.3-0.4,2.8c-0.5,0.6-1.1,1.1-1.7,1.5c-0.6,0.3-1.5,0.5-2.4,0.5s-1.6-0.2-2.4-0.5
		c-0.6-0.3-1.3-0.8-1.8-1.5c-0.5-0.6-0.6-1.4-0.8-2.4c-0.2-1.1-0.1-2.5-0.1-4v-4.9c0-1.5-0.1-2.8,0.2-3.9c0.2-1.1,0.2-1.8,0.6-2.4
		c0.5-0.6,1.1-1.1,1.7-1.5c0.6-0.3,1.5-0.5,2.4-0.5s1.6,0.2,2.4,0.5c0.6,0.3,1.3,0.8,1.7,1.5c0.5,0.6,0.2,1.1,0.4,2.2l4.8,0.2
		c0-2.3-0.6-4.5-1.5-5.6s-2-1.9-3.3-2.4c-1.3-0.6-2.8-0.5-4.4-0.5c-1.6,0-3.2,0.2-4.5,0.6C82,66.9,81,67.7,80,68.7
		c-1,1.1-1.6,2.4-2.1,3.9c-0.5,1.5-0.6,3.5-0.6,5.6v4.9c0,2,0.2,3.9,0.7,5.4c0.5,1.5,1.2,2.8,2.2,3.9s2,1.8,3.3,2.4
		c1.3,0.5,2.7,0.8,4.3,0.8c1.5,0,3-0.2,4.3-0.8c1.3-0.5,2.4-1.3,3.3-2.4c0.9-1.1,1.8-4,1.6-5.8"/>
	<path class="st1" d="M298.8,89.8c-0.2,0.6,0,1.5-0.3,1.9c-0.3,0.4-0.7,0.8-1.1,1c-0.5,0.2-1,0.3-1.6,0.3c-0.6,0-1.1-0.1-1.5-0.3
		c-0.5-0.2-0.8-0.6-1.2-1c-0.3-0.4-0.4-0.9-0.6-1.6c-0.2-0.7,0-1.7,0-2.7v-3.3c0-1-0.1-1.9,0.1-2.6c0.2-0.7,0.2-1.2,0.5-1.6
		c0.3-0.4,0.7-0.8,1.1-1c0.5-0.2,1-0.3,1.5-0.3c0.6,0,1.1,0.1,1.5,0.3c0.5,0.2,0.8,0.6,1.1,1c0.3,0.4,0.1,0.7,0.2,1.5l3.2,0.1
		c0-1.5-0.4-3.1-1.1-3.7c-0.6-0.7-1.4-1.2-2.2-1.6c-0.9-0.3-1.9-0.3-2.9-0.3c-1.1,0-2.1,0.1-3,0.5c-0.9,0.3-1.6,0.9-2.2,1.6
		c-0.6,0.7-1.1,1.6-1.5,2.7c-0.3,1.1-0.4,2.4-0.4,3.7v3.3c0,1.4,0.2,2.6,0.5,3.6c0.3,1.1,0.8,1.9,1.5,2.6c0.6,0.6,1.4,1.2,2.2,1.5
		c0.9,0.3,1.8,0.5,2.8,0.5c1.1,0,2-0.2,2.9-0.5c0.9-0.3,1.6-0.9,2.2-1.5c0.6-0.7,1.2-2.7,1.1-3.9"/>
	<path class="st1" d="M207.7,75.8h3.8l-0.2,13l0.1,7.1h-3.7V75.8z M208.8,75.8h3l4.7,15.7l4.5-15.7h2.8l-6.2,20.1h-2.5L208.8,75.8z
		 M221.9,75.8h3.5v20.1h-3.7l-0.1-7.4L221.9,75.8z"/>
	<path class="st1" d="M237.9,82.1v-0.5c0-1.4-0.9-2.6-2.2-2.9c-0.1,0-0.2-0.1-0.3-0.1l0,0h-3.3v17.3h-3.8V75.8h7.1
		c1.2,0,2,0.2,2.8,0.6c0.7,0.4,1.4,1,1.9,1.6c0.8,1.1,1.2,2.5,1.2,4.1c0,1.1-0.2,2.1-0.6,3c-0.4,0.8-1.1,1.5-1.9,1.9
		c-1.1,0.6-1.9,1-3.2,1h-4.2V85h2.9l0,0c1.6,0,3.1-0.5,3.5-2L237.9,82.1z"/>
	<path class="st1" d="M254.2,75.8v13.3c0,1-0.2,1.7-0.4,2.2c-0.2,0.5-0.6,0.9-1.1,1.1c-0.5,0.2-1.5,0.3-2.2,0.3c-0.2,0-0.3,0-0.5,0
		c-0.2,0.5-0.2,0.9-0.5,1.4c-0.1,0.3-0.2,0.6-0.4,0.8c0,0.4,0,0.3-0.1,0.6c0.6,0,1,0.5,1.5,0.5c1.2,0,3-0.2,4-0.5
		c1.1-0.4,1.9-1.2,2.5-2.2c0.6-1,0.9-2.1,0.9-3.6V75.8L254.2,75.8z"/>
	<path class="st1" d="M272,75.8v2.8h-12.2v-2.8H272z M267.7,75.8v20.1h-3.5V75.8C264.2,75.8,267.7,75.8,267.7,75.8z"/>
	<path class="st1" d="M280.1,79.5L275.4,96H272l6.1-20.1h2.1L280.1,79.5z M283.8,88.7v1.9h-8.9v-1.9H283.8z M283.7,95.9l-4.6-16.5
		l-0.2-3.6h2.1l6.2,20.1H283.7z"/>
	<path class="st1" d="M308.3,75.8v20.1h-3.6V75.8C304.6,75.8,308.3,75.8,308.3,75.8z"/>
	<polygon class="st1" points="323.3,69.9 319.4,69.9 317.3,72.9 320.1,72.9 	"/>
	<path class="st1" d="M341.9,75.8v20.1h-3.2l-6.9-13.9v13.9h-3.2V75.8h3.2l7,14v-14C338.8,75.8,341.9,75.8,341.9,75.8z"/>
	<path class="st1" d="M325.1,84.3v3.3c0,1.4-0.2,2.6-0.5,3.6c-0.3,1.1-0.8,1.9-1.4,2.6c-0.6,0.7-1.4,1.2-2.2,1.5
		c-0.9,0.3-1.9,0.5-2.9,0.5c-1.1,0-2-0.2-2.8-0.5c-0.9-0.3-1.6-0.9-2.2-1.5c-0.6-0.7-1.1-1.5-1.5-2.6c-0.3-1.1-0.5-2.3-0.5-3.6v-3.3
		c0-1.4,0-2.7,0.4-3.7c0.3-1.1,0.8-1.9,1.5-2.7c0.6-0.7,1.4-1.2,2.2-1.6c0.9-0.3,1.9-0.5,3-0.5c1.1,0,2,0,2.9,0.3
		c0.9,0.3,1.6,0.9,2.2,1.6c0.6,0.7,1.1,1.6,1.5,2.7C325,81.5,325.1,82.8,325.1,84.3z M321.4,87.5v-3.3c0-1,0.1-1.9-0.1-2.6
		c-0.2-0.7-0.2-1.2-0.6-1.7c-0.3-0.5-0.7-0.8-1.1-1c-0.5-0.2-1-0.3-1.5-0.3s-1.1,0.1-1.5,0.3c-0.5,0.2-0.8,0.6-1.1,1
		c-0.3,0.5-0.3,1-0.5,1.6c-0.2,0.6-0.1,1.6-0.1,2.6v3.3c0,1-0.2,1.9,0,2.7c0.2,0.7,0.2,1.2,0.6,1.6c0.3,0.4,0.7,0.8,1.2,1
		c0.5,0.2,1,0.3,1.5,0.3s1.1-0.1,1.6-0.3c0.5-0.2,0.8-0.6,1.1-1c0.3-0.4,0.4-0.9,0.6-1.6C321.5,89.6,321.4,88.5,321.4,87.5z"/>
	<path class="st1" d="M247.7,75.8v13.3c0,1,0.2,1.7,0.4,2.2c0.2,0.5,0.6,0.9,1.1,1.1c0.5,0.2,1.5,0.3,2.2,0.3c0.2,0,0.3,0,0.5,0
		c0.2,0.5,0.2,0.9,0.5,1.4c0.1,0.3,0.2,0.6,0.4,0.8c0,0.4,0.1,0.4,0.2,0.7c-0.6,0-1.1,0.4-1.6,0.4c-1.2,0-3-0.2-4-0.5
		c-1.1-0.4-1.9-1.2-2.5-2.2c-0.6-1-0.9-2.1-0.9-3.6V75.9L247.7,75.8z"/>
	<path class="st3" d="M181.4,96c-0.2,0-0.6-0.1-0.8-0.2C180.8,96,181.1,96,181.4,96z"/>
	<path class="st3" d="M181.8,75.5c-0.5,0-0.9,0.1-1.3,0.2C180.9,75.5,181.3,75.4,181.8,75.5C181.7,75.4,181.7,75.4,181.8,75.5z"/>
	<path class="st3" d="M178.9,90.6c-0.1-0.2-0.1-0.6-0.1-0.8c0,0,0-0.1,0-0.2C178.8,90,178.9,90.3,178.9,90.6z"/>
	<path class="st3" d="M180,95.7c0.2,0.1,0.4,0.2,0.6,0.2C180.4,95.9,180.2,95.8,180,95.7L180,95.7z"/>
	<path class="st3" d="M181.4,96c-0.2,0-0.6-0.1-0.8-0.2C180.8,96,181.1,96,181.4,96z"/>
	<path class="st3" d="M178.8,89.8c0,0,0-0.1,0-0.2"/>
</g>
<g id="Capa_4">
	<polygon class="st2" points="41,82.3 44,76.8 37.4,66.1 3.6,124.7 71.5,124.7 63.4,110.8 57.7,111.1 62.5,119.2 12.9,119.2 
		37.4,76.5 	"/>
</g>
<path class="st1" d="M38.2,87.3c3.5,0.4,6.2,3.4,6.2,7c0,3.9-3.1,7-6.9,7h-0.1c-3.8,0.1-6.9,3.1-6.9,6.8c0,3.7,2.9,6.5,6.5,6.7
	c0.1,0,0.3,0,0.4,0c0.1,0,0.3,0,0.4,0c7.5-0.2,13.4-6.3,13.4-13.8C51.4,93.7,45.5,87.7,38.2,87.3z M37.5,110.4c-1.2,0-2.1-1-2.1-2.1
	c0-1.2,1-2.1,2.1-2.1c1.2,0,2.1,1,2.1,2.1C39.6,109.5,38.7,110.4,37.5,110.4z"/>
<circle class="st1" cx="37.4" cy="94.2" r="2.1"/>
<path class="st2" d="M97.2,113.3c0.1-0.6,0.2-1.1,0.6-1.5c0.2-0.4,0.6-0.6,1-0.6c0.5,0,1,0.3,1.1,0.8c0,0.3-0.1,0.6,0,1.1h1.2
	c0-0.2,0.1-0.9,0.1-1.1c-0.2-0.8-0.2-0.8-0.5-1.1c-0.2-0.3-0.4-0.4-0.6-0.6c-0.3-0.2-0.6-0.2-1-0.2c-0.4,0-0.8-0.1-1.4,0.5
	c-0.3,0.3-0.7,0.7-1,1.3c-0.3,0.5-0.5,1.1-0.6,1.6l-1,6.1c-0.1,0.5-0.1,1.1,0.2,1.5c0.1,0.2,0.2,0.5,0.3,0.6
	c0.4,0.6,1.1,0.8,1.7,0.8c0.5,0,0.6,0,1-0.2c0.4-0.2,0.6-0.5,1.1-1.1c0.2-0.3,0.4-1.2,0.3-2.2h-1.3c0,0.6-0.1,0.9-0.2,1.2
	c-0.1,0.2-0.4,1-0.9,1c-0.9,0-1-0.4-1-0.9c0-0.6,0-1.3,0.2-1.9L97.2,113.3z"/>
<path class="st2" d="M124,113.3c0.1-0.6,0.2-1.1,0.6-1.5c0.2-0.4,0.6-0.6,1-0.6c0.5,0,1,0.3,1.1,0.8c0,0.3-0.1,0.6,0,1.1h1.2
	c0-0.2,0.1-0.9,0.1-1.1c-0.2-0.8-0.2-0.8-0.5-1.1c-0.2-0.3-0.4-0.4-0.6-0.6c-0.3-0.2-0.6-0.2-1-0.2c-0.4,0-0.8-0.1-1.4,0.5
	c-0.3,0.3-0.7,0.7-1,1.3c-0.3,0.5-0.5,1.1-0.6,1.6l-1,6.1c-0.1,0.5-0.1,1.1,0.2,1.5c0.1,0.2,0.2,0.5,0.3,0.6
	c0.4,0.6,1.1,0.8,1.7,0.8c0.5,0,0.6,0,1-0.2c0.4-0.2,0.6-0.5,1.1-1.1c0.2-0.3,0.4-1.2,0.3-2.2h-1.3c0,0.6-0.1,0.9-0.2,1.2
	c-0.1,0.2-0.4,1-0.9,1c-0.9,0-1-0.4-1-0.9c0-0.6,0-1.3,0.2-1.9L124,113.3z"/>
<path class="st2" d="M100.5,122.3l4.5-12.2h1.7v12.2h-1.4l0.2-10.7h0.1l-3.8,10.7L100.5,122.3z M102.6,118.7l0.2-1.5h2.9l-0.2,1.5
	H102.6z"/>
<path class="st2" d="M113.7,122.3l4.5-12.2h1.7v12.2h-1.4l0.2-10.7h0.1l-3.8,10.7L113.7,122.3z M115.8,118.7l0.2-1.5h2.9l-0.2,1.5
	H115.8z"/>
<path class="st2" d="M108.1,122.3l2-12.2h2.7c0.6,0,1.1,0.2,1.5,0.5c0.3,0.3,0.6,0.8,0.7,1.5c0.1,0.6,0.2,1.4,0,2.2s-0.3,1-1,1.6
	c-0.6,0.6-1.3,1-2.3,1h-1.5l-1,5.5H108.1z M110.6,115.2h1.5c0.5,0,1.1-0.1,1.4-0.5c0.3-0.4,0.5-0.5,0.6-1.4c0-0.2,0-1.1-0.2-1.4
	c-0.2-0.3-0.7-0.4-1.2-0.4h-1.5L110.6,115.2z"/>
<path class="st2" d="M127.9,122.3l2-12.2h1.3l-2,12.2H127.9z"/>
<path class="st2" d="M146.3,113.2c0.1-0.6,0.2-1.1,0.6-1.5c0.2-0.4,0.6-0.6,1-0.6c0.5,0,1,0.3,1.1,0.8c0,0.3-0.1,0.6,0,1.1h1.2
	c0-0.2,0.1-0.9,0.1-1.1c-0.2-0.8-0.2-0.8-0.5-1.1c-0.2-0.3-0.4-0.4-0.6-0.6c-0.3-0.2-0.6-0.2-1-0.2c-0.4,0-0.8-0.1-1.4,0.5
	c-0.3,0.3-0.7,0.7-1,1.3c-0.3,0.5-0.5,1.1-0.6,1.6l-1,6.1c-0.1,0.5-0.1,1.1,0.2,1.5c0.1,0.2,0.2,0.5,0.3,0.6
	c0.4,0.6,1.1,0.8,1.7,0.8c0.5,0,0.6,0,1-0.2c0.4-0.2,0.6-0.5,1.1-1.1c0.2-0.3,0.4-1.2,0.3-2.2h-1.3c0,0.6-0.1,0.9-0.2,1.2
	c-0.1,0.2-0.4,1-0.9,1c-0.9,0-1-0.4-1-0.9c0-0.6,0-1.3,0.2-1.9L146.3,113.2z"/>
<path class="st2" d="M310.2,113.3c0.1-0.6,0.2-1.1,0.6-1.5c0.2-0.4,0.6-0.6,1-0.6c0.5,0,1,0.3,1.1,0.8c0,0.3-0.1,0.6,0,1.1h1.2
	c0-0.2,0.1-0.9,0.1-1.1c-0.2-0.8-0.2-0.8-0.5-1.1c-0.2-0.3-0.4-0.4-0.6-0.6c-0.3-0.2-0.6-0.2-1-0.2c-0.4,0-0.8-0.1-1.4,0.5
	c-0.3,0.3-0.7,0.7-1,1.3c-0.3,0.5-0.5,1.1-0.6,1.6l-1,6.1c-0.1,0.5-0.1,1.1,0.2,1.5c0.1,0.2,0.2,0.5,0.3,0.6
	c0.4,0.6,1.1,0.8,1.7,0.8c0.5,0,0.6,0,1-0.2c0.4-0.2,0.6-0.5,1.1-1.1c0.2-0.3,0.4-1.2,0.3-2.2h-1.3c0,0.6-0.1,0.9-0.2,1.2
	c-0.1,0.2-0.4,1-0.9,1c-0.9,0-1-0.4-1-0.9c0-0.6,0-1.3,0.2-1.9L310.2,113.3z"/>
<g>
	<path class="st2" d="M155.4,121.4c0-0.2,0.1-0.2,0.2-0.3c-0.3-0.2-0.4-0.5-0.4-0.8c0-0.6,0-1.3,0.2-1.9l0.8-5
		c0.1-0.6,0.2-1.1,0.6-1.5c0.2-0.4,0.6-0.6,1-0.6c0.4,0,0.8,0.2,1.1,0.6c0.2-0.3,0.4-0.6,0.7-0.9c-0.2-0.3-0.4-0.4-0.6-0.6
		c-0.3-0.2-0.6-0.2-1-0.2c-0.4,0-0.8-0.1-1.4,0.5c-0.3,0.3-0.7,0.7-1,1.3c-0.3,0.5-0.5,1.1-0.6,1.6l-1,6.1c-0.1,0.5-0.1,1.1,0.2,1.5
		c0.1,0.2,0.2,0.5,0.3,0.6c0.2,0.2,0.6,0.4,0.8,0.6C155.2,122,155.3,121.7,155.4,121.4z"/>
	<path class="st2" d="M159.9,111.4c-0.1-0.2-0.2-0.5-0.3-0.6c-0.3-0.5-0.9-0.6-1.5-0.6c0.1,0.4,0.2,0.7,0.2,1.1
		c0.5,0.1,0.6,0.5,0.6,0.9c0,0.6-0.1,1.3-0.2,1.9l-0.9,5c-0.1,0.6-0.3,1.1-0.6,1.5c-0.2,0.4-0.6,0.6-1,0.6c-0.4,0-0.7-0.2-0.9-0.5
		c-0.2,0.3-0.6,0.6-0.9,0.8c0.2,0.3,0.4,0.4,0.6,0.6c0.3,0.2,0.6,0.2,1,0.2c0.4,0,0.8,0.1,1.4-0.5c0.4-0.3,0.7-0.7,1-1.3
		c0.3-0.5,0.5-1.1,0.6-1.6l1.1-6.1C160.1,112.4,160.1,111.9,159.9,111.4z"/>
</g>
<g>
	<path class="st2" d="M210,121.4c0-0.2,0.1-0.2,0.2-0.3c-0.3-0.2-0.4-0.5-0.4-0.8c0-0.6,0-1.3,0.2-1.9l0.8-5
		c0.1-0.6,0.2-1.1,0.6-1.5c0.2-0.4,0.6-0.6,1-0.6s0.8,0.2,1.1,0.6c0.2-0.3,0.4-0.6,0.7-0.9c-0.2-0.3-0.4-0.4-0.6-0.6
		c-0.3-0.2-0.6-0.2-1-0.2c-0.4,0-0.8-0.1-1.4,0.5c-0.3,0.3-0.7,0.7-1,1.3c-0.3,0.5-0.5,1.1-0.6,1.6l-1,6.1c-0.1,0.5-0.1,1.1,0.2,1.5
		c0.1,0.2,0.2,0.5,0.3,0.6c0.2,0.2,0.6,0.4,0.8,0.6C209.9,122,209.9,121.7,210,121.4z"/>
	<path class="st2" d="M214.5,111.4c-0.1-0.2-0.2-0.5-0.3-0.6c-0.3-0.5-0.9-0.6-1.5-0.6c0.1,0.4,0.2,0.7,0.2,1.1
		c0.5,0.1,0.6,0.5,0.6,0.9c0,0.6-0.1,1.3-0.2,1.9l-0.9,5c-0.1,0.6-0.3,1.1-0.6,1.5c-0.2,0.4-0.6,0.6-1,0.6c-0.4,0-0.7-0.2-0.9-0.5
		c-0.2,0.3-0.6,0.6-0.9,0.8c0.2,0.3,0.4,0.4,0.6,0.6c0.3,0.2,0.6,0.2,1,0.2c0.4,0,0.8,0.1,1.4-0.5c0.4-0.3,0.7-0.7,1-1.3
		c0.3-0.5,0.5-1.1,0.6-1.6l1.1-6.1C214.7,112.4,214.7,111.9,214.5,111.4z"/>
</g>
<g>
	<path class="st2" d="M324.4,111.4c-0.1-0.2-0.2-0.5-0.3-0.6c-0.2-0.2-0.4-0.4-0.6-0.5h-0.1c-0.3-0.2-0.6-0.2-1-0.2
		c-0.4,0-0.8-0.1-1.4,0.5c-0.3,0.3-0.6,0.7-1,1.3c-0.2,0.5-0.5,1.1-0.6,1.6l-1,6.1c-0.1,0.5-0.1,1,0.2,1.5c0.1,0.2,0.2,0.5,0.3,0.6
		c0.1,0.1,0.1,0.1,0.2,0.2l0.1,0.1c0,0,0.1,0.1,0.2,0.1c0.2,0.1,0.3,0.2,0.5,0.2c0.2,0.1,0.5,0.2,0.7,0.1c0.4,0,0.8,0.1,1.4-0.5
		c0.4-0.3,0.7-0.7,1-1.3c0.3-0.5,0.5-1.1,0.6-1.6l1-5.3C324.5,113.1,324.6,111.9,324.4,111.4z M319.8,120.8
		c-0.1-0.2-0.1-0.4-0.1-0.6c0-0.6,0-1.3,0.2-1.9l0.8-5c0.1-0.6,0.2-1.1,0.6-1.5c0.2-0.4,0.6-0.6,1-0.6c0.2,0,0.6,0.2,0.8,0.3l0,0
		c0.2,0.2,0.2,0.7,0.2,1c0,0.6-0.1,1-0.2,1.5l-0.9,5c-0.1,0.6-0.3,1.1-0.6,1.5c-0.2,0.4-0.6,0.6-1,0.6c-0.2,0-0.3-0.1-0.5-0.2l0,0"
		/>
	<path class="st2" d="M319.7,122.2c-0.1,0-0.2-0.1-0.2-0.1c-0.1-0.1-0.2-0.1-0.2-0.2C319.4,122.1,319.5,122.2,319.7,122.2z"/>
</g>
<path class="st2" d="M136,122.3l4.5-12.2h1.7v12.2h-1.4l0.2-10.7h0.1l-3.8,10.7L136,122.3z M138.1,118.7l0.2-1.5h2.9l-0.2,1.5H138.1
	z"/>
<path class="st2" d="M181,122.4l4.5-12.2h1.7v12.2h-1.4l0.2-10.7h0.1l-3.8,10.7L181,122.4z M183,118.7l0.2-1.5h2.9l-0.2,1.5H183z"/>
<path class="st2" d="M224.9,122.3l4.5-12.2h1.7v12.2h-1.4l0.2-10.7h0.1l-3.8,10.7L224.9,122.3z M227,118.6l0.2-1.5h2.9l-0.2,1.5H227
	z"/>
<path class="st2" d="M150.2,122.3l2-12.2h1.3l-2,12.2H150.2z"/>
<path class="st2" d="M132.4,111.7l0.2-1.5l5.1,0.1l-0.2,1.5L132.4,111.7z M132.5,122.4l2-12.2h1.2l-2,12.2H132.5z"/>
<path class="st2" d="M160.4,122.4l2.7-12.3h1.6l0.5,10.8l-0.3-0.2l2.4-10.6h1.2l-2.8,12.2H164l-0.5-10.9l0.2,0.2l-2.2,10.7
	L160.4,122.4z"/>
<path class="st2" d="M266.3,122.4l2.7-12.3h1.6l0.5,10.8l-0.3-0.2l2.4-10.6h1.2l-2.8,12.2h-1.6l-0.5-10.9l0.2,0.2l-2.2,10.7
	L266.3,122.4z"/>
<polygon class="st2" points="159.4,107.3 158.2,109 159.4,109 160.7,107.3 "/>
<path class="st2" d="M195.4,122.4l2.6-12.2h4.2l-0.3,1.5h-3l-1.9,9.1h3.5l-0.3,1.5L195.4,122.4z M196.7,116.6l0.3-1.4h3.6l-0.3,1.4
	H196.7z"/>
<path class="st2" d="M260.4,122.4l2.6-12.2h4.2l-0.3,1.5h-3l-1.9,9.1h3.5l-0.3,1.5L260.4,122.4z M261.7,116.6l0.3-1.4h3.6l-0.3,1.4
	H261.7z"/>
<path class="st2" d="M215.5,122.4l1.9-12.2h2.7c0.5,0,0.8,0.2,1.1,0.4c0.3,0.2,0.5,0.6,0.6,1.2c0.1,0.6,0.1,1.2-0.1,2.1
	c-0.2,0.8-0.2,0.9-0.5,1.4c-0.3,0.5-0.6,0.8-1.1,1.1s-0.8,0.3-1.3,0.3h-1.2l-1,5.7H215.5z M217.8,115.2h1.3c0.2,0,0.5-0.1,0.6-0.2
	c0.2-0.1,0.4-0.3,0.6-0.6c0.2-0.3,0.1-0.1,0.2-0.6c0.1-0.5,0.2-0.9,0.1-1.2c-0.1-0.3-0.2-0.5-0.3-0.6c-0.2-0.2-0.3-0.2-0.6-0.2h-1.5
	L217.8,115.2z M218.9,122.4l0.5-4.3c0-0.3,0-0.7-0.2-1.1l-0.3-0.9l1.1-0.2l0,0c0.3,0.6,0.5,1.5,0.4,2.2l-0.5,4.2L218.9,122.4z"/>
<path class="st2" d="M291,122.1l1.9-12.2h2.7c0.5,0,0.8,0.2,1.1,0.4s0.5,0.6,0.6,1.2s0.1,1.2-0.1,2.1c-0.2,0.8-0.2,0.9-0.5,1.4
	c-0.3,0.5-0.6,0.8-1.1,1.1c-0.4,0.2-0.8,0.3-1.3,0.3h-1.2l-1,5.7H291z M293.4,114.8h1.3c0.2,0,0.5-0.1,0.6-0.2
	c0.2-0.1,0.4-0.3,0.6-0.6c0.2-0.3,0.1-0.1,0.2-0.6c0.1-0.5,0.2-0.9,0.1-1.2c-0.1-0.3-0.2-0.5-0.3-0.6c-0.2-0.2-0.3-0.2-0.6-0.2h-1.5
	L293.4,114.8z M294.5,122.1l0.5-4.3c0-0.3,0-0.7-0.2-1.1l-0.3-0.9l1.1-0.2l0,0c0.3,0.6,0.5,1.5,0.4,2.2l-0.5,4.2L294.5,122.1z"/>
<path class="st2" d="M221.7,122.3l2.6-12.2h1.2l-2.6,12.2H221.7z M225.4,109.5l-0.2-1.1l1.5-1.1l1.1,0.4L225.4,109.5z"/>
<path class="st2" d="M245.9,122.4l2.6-12.2h3.1c0.4,0,0.8,0.2,1.1,0.4s0.5,0.6,0.6,1.1c0.1,0.5,0.1,1-0.1,1.5
	c-0.1,0.6-0.3,1-0.6,1.5c-0.2,0.4-0.5,0.7-0.8,1s-0.6,0.3-1,0.4l-0.6-0.5h0.4c0.8,0,1.4,0.3,1.6,0.9c0.2,0.6,0.2,1.5,0.1,2.6
	c-0.2,1-0.6,1.8-1.1,2.4c-0.6,0.6-1.2,0.9-2,0.9H245.9z M247.5,120.9h1.6c0.5,0,0.9-0.2,1.2-0.6c0.3-0.4,0.6-0.9,0.7-1.7
	s0.2-1.4,0-1.6c-0.2-0.3-0.5-0.5-1-0.5h-1.6L247.5,120.9z M248.7,115.1h1.5c0.3,0,0.6-0.2,0.9-0.4s0.5-0.7,0.6-1.4
	c0.1-0.4,0.1-0.7,0.1-1c-0.1-0.2-0.2-0.4-0.3-0.5c-0.2-0.1-0.3-0.2-0.6-0.2h-1.5L248.7,115.1z"/>
<path class="st2" d="M255.8,122.5c-0.6,0-1-0.2-1.4-0.5c-0.4-0.3-0.6-0.9-0.7-1.5c-0.1-0.7-0.1-1.6,0.2-2.8l1.6-7.6h1.2l-1.7,7.9
	c-0.2,0.6-0.2,1.2-0.2,1.6c0.1,0.4,0.2,0.7,0.4,1c0.2,0.2,0.5,0.3,0.8,0.3c0.5,0,0.9-0.2,1.3-0.7c0.4-0.5,0.7-1.2,0.9-2.2l1.7-7.9
	h1.2l-1.6,7.6c-0.2,1.1-0.6,2.1-0.9,2.8c-0.4,0.7-0.8,1.2-1.3,1.5C257,122.4,256.4,122.5,255.8,122.5z"/>
<path class="st2" d="M299,122.5l0.1-12.2h1.2l-0.2,10.5H300l3.3-10.5h1.3l-4.1,12.2H299z"/>
<path class="st2" d="M304.1,122.4l2.6-12.2h1.2l-2.6,12.2H304.1z"/>
<path class="st2" d="M314.1,122.4l2.6-12.2h1.2l-2.6,12.2H314.1z"/>
<path class="st2" d="M193.7,113.1h1.2c0,0,0.3-3.2-1.9-3.2c-2.8,0.2-3.5,3-2.3,4.9c1.1,1.8,2.9,3.6,1.8,5.4
	c-0.5,0.7-1.5,0.8-1.9,0.2c-0.2-0.3-0.4-0.9-0.3-1.8H189c0,0-0.6,2.4,1.3,3.5c0.6,0.3,1.1,0.4,1.8,0.2c1.1-0.3,2.8-1.4,1.9-4.5
	c0,0,0.1-0.7-1.9-3.5c-0.4-0.5-0.6-1.3-0.4-1.9c0.2-0.6,0.7-1.2,1.2-1.2C192.8,111.2,193.9,111.2,193.7,113.1z"/>
<path class="st2" d="M284.4,122.2l2.6-12.2h4.2l-0.3,1.5h-3l-1.9,9.1h3.5l-0.3,1.5L284.4,122.2z M285.7,116.4l0.3-1.4h3.6l-0.3,1.4
	H285.7z"/>
<path class="st2" d="M282.7,112.9h1.2c0,0,0.3-3.2-1.9-3.2c-2.8,0.2-3.5,3-2.3,4.9c1.1,1.8,2.9,3.6,1.8,5.4
	c-0.5,0.7-1.5,0.8-1.9,0.2c-0.2-0.3-0.4-0.9-0.3-1.8h-1.4c0,0-0.6,2.4,1.3,3.5c0.6,0.3,1.1,0.4,1.8,0.2c1.1-0.3,2.8-1.4,1.9-4.5
	c0,0,0.1-0.7-1.9-3.5c-0.4-0.5-0.6-1.3-0.4-1.9c0.2-0.6,0.7-1.2,1.2-1.2C281.8,111,282.9,111,282.7,112.9z"/>
<path class="st2" d="M206.8,113.1h1.2c0,0,0.3-3.2-1.9-3.2c-2.8,0.2-3.5,3-2.3,4.9c1.1,1.8,2.9,3.6,1.8,5.4
	c-0.5,0.7-1.5,0.8-1.9,0.2c-0.2-0.3-0.4-0.9-0.3-1.8h-1.2c0,0-0.6,2.4,1.3,3.5c0.6,0.3,1.1,0.4,1.8,0.2c1.1-0.3,2.8-1.4,1.9-4.5
	c0,0,0.1-0.7-1.9-3.5c-0.4-0.5-0.6-1.3-0.4-1.9c0.2-0.6,0.7-1.2,1.2-1.2C205.9,111.3,207,111.3,206.8,113.1z"/>
</svg>
