<?xml version="1.0" encoding="utf-8"?>
<!-- Generator: Adobe Illustrator 28.0.0, SVG Export Plug-In . SVG Version: 6.00 Build 0)  -->
<svg version="1.1" xmlns="http://www.w3.org/2000/svg" xmlns:xlink="http://www.w3.org/1999/xlink" x="0px" y="0px"
	 viewBox="0 0 348.5 183.8" style="enable-background:new 0 0 348.5 183.8;" xml:space="preserve">
<style type="text/css">
	.st0{display:none;}
	.st1{fill:#3B4394;}
	.st2{fill:#5EC5EB;}
	.st3{opacity:0.26;fill:#3B4394;}
</style>
<g id="Capa_1" class="st0">
	
		<image style="display:inline;overflow:visible;" width="316" height="160" xlink:href="Logo completo.png"  transform="matrix(1.1487 0 0 1.1487 -7.7508 -0.6383)">
	</image>
</g>
<g id="Capa_3">
	<path class="st1" d="M51.6,104.9l-8.2,31.3h-5.7l10.6-36.5H52L51.6,104.9z M59.2,122.9l-0.4,5.1h-17l0.4-5.1H59.2z M58.4,136.2
		l-8.3-31.3l-0.4-5.2h3.6l10.8,36.5H58.4z"/>
	<path class="st1" d="M80.3,119.6h-8l0-3.9h7c1.2,0,1.3-0.2,2.1-0.6c0.8-0.4,1.6-1.2,2-1.9s0.5-2.1,0.5-3.1c0-1.2,0-2.4-0.4-3.2
		c-0.4-0.7-1.1-1.5-1.9-1.9c-0.8-0.3-1-0.5-2.3-0.5h-4.9l-0.1,31.6h-5.8V99.6h10.7c1.7,0,2.1,0.1,3.4,0.5s2.4,0.8,3.3,1.6
		c1,0.8,1.8,1.6,2.3,2.8c0.5,1.2,0.7,3.8,0.7,5.5c0,1.5-0.1,2.9-0.7,4.1s-0.9,1.7-2.1,2.5c-1.2,0.8-2.3,1.3-4.1,1.4L80.3,119.6z
		 M80.1,136.2h-9.4l2.5-4.3h7c1.2,0,2.1-0.5,3-1c0.8-0.5,1.1-1.1,1.5-1.9s0.6-2.3,0.6-3.4c0-1.2-0.2-2.2-0.5-3
		c-0.4-0.9-1-1.9-1.7-2.4c-0.8-0.5-1.4-0.5-2.6-0.5h-6.1l0-3.9l7,0l2.1,1.1c1.7,0.1,2.7,0.8,3.8,1.6c1.1,0.8,1.9,1.8,2.5,3.1
		c0.5,1.3,0.8,2.6,0.8,4.1c0,2.3-0.5,3.9-1.2,5.6c-0.7,1.9-1.8,3.2-3.4,4C84.3,136,82.4,136.2,80.1,136.2z"/>
	<path class="st1" d="M113.5,126.5c0-0.7-0.1-1.4-0.3-2c-0.2-0.6-0.5-1.1-1-1.6s-1.2-0.9-2-1.4s-2-0.9-3.3-1.4
		c-1.5-0.5-2.8-1.1-4.1-1.7c-1.2-0.6-2.3-1.4-3.2-2.3c-0.9-0.9-1.6-1.8-2.1-3c-0.5-1.1-0.8-2.4-0.8-3.9c0-1.5,0.3-2.8,0.8-4
		s1.3-2.2,2.3-3.1c1-0.9,2.1-1.6,3.5-2c1.3-0.5,2.8-0.7,4.5-0.7c2.3,0,4.3,0.5,5.9,1.5s2.9,2.3,3.8,3.9c0.9,1.6,0.8,3.2,0.8,5.2
		h-4.9c0-1.2-0.1-1.9-0.5-2.8c-0.4-0.9-1.1-1.6-2-2.1s-2-0.8-3.3-0.8c-1.3,0-2.3,0.2-3.1,0.7s-1.5,1-1.9,1.8
		c-0.4,0.8-0.6,1.6-0.6,2.5c0,0.7,0.1,1.3,0.4,1.8c0.3,0.5,0.7,1.1,1.2,1.5c0.6,0.5,1.2,0.9,2.1,1.3c0.8,0.4,1.8,0.8,2.9,1.2
		c1.7,0.6,3.2,1.2,4.5,1.9c1.3,0.7,2.3,1.5,3.2,2.4s1.5,1.9,1.9,3c0.4,1.1,0.6,2.4,0.6,3.9c0,1.5-0.3,2.9-0.8,4.1
		c-0.5,1.2-1.3,2.2-2.2,3.1s-2.1,1.5-3.5,1.9c-1.4,0.4-2.9,0.7-4.5,0.7c-1.5,0-2.9-0.2-4.4-0.7s-2.7-1.2-3.9-2.1
		c-1.2-0.9-2.1-2.1-2.8-3.5s-0.5-3-0.5-4.8h5c0,1.2,0,2,0.3,2.9c0.3,0.8,0.8,1.5,1.5,2c0.6,0.5,1.3,0.9,2.2,1.1
		c0.8,0.2,1.7,0.4,2.7,0.4c1.2,0,2.3-0.2,3.1-0.6c0.8-0.4,1.5-1,1.9-1.7C113.3,128.3,113.5,127.5,113.5,126.5z"/>
	<polygon class="st2" points="129.2,159.6 128.5,163.1 132.4,163.1 133.1,159.6 	"/>
	<polygon class="st2" points="207.9,159.6 207.1,163.1 211,163.1 211.7,159.6 	"/>
</g>
<g id="Capa_2">
	<path class="st3" d="M137.8,111.7c-0.2,0.1-0.4,0.1-0.6,0.2c0,0,0-0.1,0-0.1C137.4,111.8,137.6,111.8,137.8,111.7z"/>
	<path class="st3" d="M137.9,136.7c-0.2,0-0.5-0.1-0.7-0.2c0,0,0-0.1,0-0.1C137.4,136.6,137.7,136.7,137.9,136.7z"/>
	<path class="st3" d="M135.9,130.2c-0.1-0.3-0.1-0.7-0.1-1c0,0,0-0.1,0-0.2C135.8,129.5,135.9,129.8,135.9,130.2z"/>
	<path class="st1" d="M168,122.4v4.1c0,1.7-0.2,3.2-0.6,4.5c-0.4,1.3-1,2.4-1.7,3.2c-0.8,0.9-1.7,1.5-2.7,1.9
		c-1.1,0.4-2.3,0.6-3.6,0.6c-1.3,0-2.5-0.2-3.5-0.6c-1.1-0.4-2-1.1-2.7-1.9c-0.8-0.9-1.4-1.9-1.8-3.2c-0.4-1.3-0.6-2.8-0.6-4.5v-4.1
		c0-1.7,0-3.3,0.5-4.6c0.4-1.3,1-2.4,1.8-3.3c0.8-0.9,1.7-1.5,2.7-2c1.1-0.4,2.4-0.6,3.7-0.6c1.3,0,2.5,0,3.6,0.4
		c1.1,0.4,2,1.1,2.7,2c0.8,0.9,1.3,2,1.8,3.3C167.9,118.9,168,120.6,168,122.4z M163.5,126.4v-4.1c0-1.2,0.1-2.3-0.1-3.2
		s-0.3-1.5-0.7-2.1c-0.4-0.6-0.9-1-1.4-1.2c-0.6-0.3-1.2-0.4-1.9-0.4s-1.4,0.1-1.9,0.4c-0.6,0.3-1,0.7-1.4,1.2
		c-0.4,0.6-0.4,1.2-0.6,2c-0.2,0.9-0.1,2-0.1,3.2v4.1c0,1.2-0.2,2.4,0,3.3c0.2,0.9,0.3,1.5,0.7,2c0.4,0.5,0.9,1,1.5,1.2
		c0.6,0.3,1.2,0.4,1.9,0.4c0.7,0,1.4-0.1,2-0.4c0.6-0.3,1-0.7,1.4-1.2c0.4-0.5,0.5-1.1,0.7-2C163.6,128.9,163.5,127.6,163.5,126.4z"
		/>
	<path class="st1" d="M143.9,129.2c-0.2,0.8,0,1.9-0.4,2.4c-0.4,0.5-0.9,1-1.4,1.2c-0.6,0.3-1.2,0.4-2,0.4c-0.7,0-1.4-0.1-1.9-0.4
		c-0.6-0.3-1-0.7-1.5-1.2c-0.4-0.5-0.5-1.1-0.7-2c-0.2-0.9,0-2.1,0-3.3v-4.1c0-1.2-0.1-2.4,0.1-3.2c0.2-0.9,0.2-1.5,0.6-2
		s0.9-1,1.4-1.2c0.6-0.3,1.2-0.4,1.9-0.4s1.4,0.1,1.9,0.4c0.6,0.3,1,0.7,1.4,1.2s0.1,0.9,0.3,1.8l4,0.1c0-1.9-0.5-3.8-1.3-4.6
		c-0.8-0.9-1.7-1.5-2.7-2c-1.1-0.4-2.3-0.4-3.6-0.4s-2.6,0.1-3.7,0.6c-1.1,0.4-2,1.1-2.7,2s-1.4,2-1.8,3.3c-0.4,1.3-0.5,2.9-0.5,4.6
		v4.1c0,1.7,0.2,3.2,0.6,4.5c0.4,1.3,1,2.4,1.8,3.2s1.7,1.5,2.7,1.9c1.1,0.4,2.2,0.6,3.5,0.6c1.3,0,2.5-0.2,3.6-0.6
		c1.1-0.4,2-1.1,2.7-1.9c0.8-0.9,1.5-3.3,1.3-4.8"/>
	<path class="st1" d="M29.2,125.3c-0.3,1.2,0,2.8-0.5,3.5c-0.6,0.8-1.3,1.4-2.1,1.8c-0.8,0.4-1.8,0.6-2.9,0.6c-1.1,0-2-0.2-2.9-0.6
		c-0.8-0.4-1.6-1-2.2-1.8c-0.6-0.8-0.7-1.7-1-3c-0.3-1.3-0.1-3.1-0.1-4.9v-6.1c0-1.8-0.1-3.5,0.2-4.8c0.3-1.3,0.3-2.2,0.8-3
		c0.6-0.8,1.3-1.4,2.1-1.8c0.8-0.4,1.8-0.6,2.9-0.6c1.1,0,2,0.2,2.9,0.6c0.8,0.4,1.6,1,2.1,1.8c0.6,0.8,0.2,1.4,0.5,2.7l5.9,0.2
		c0-2.8-0.8-5.6-1.9-6.9c-1.1-1.3-2.5-2.3-4.1-2.9c-1.6-0.7-3.4-0.6-5.4-0.6s-3.9,0.2-5.5,0.8c-1.6,0.7-2.9,1.6-4.1,2.9
		s-2,2.9-2.6,4.8c-0.6,1.9-0.7,4.3-0.7,6.9v6.1c0,2.5,0.3,4.8,0.9,6.7c0.6,1.9,1.5,3.5,2.7,4.8s2.5,2.2,4.1,2.9c1.6,0.6,3.3,1,5.3,1
		c1.9,0,3.7-0.3,5.3-1c1.6-0.6,2.9-1.6,4.1-2.9c1.1-1.3,2.2-4.9,2-7.2"/>
	<path class="st1" d="M283.8,129.2c-0.2,0.8,0,1.9-0.4,2.4c-0.4,0.5-0.9,1-1.4,1.2c-0.6,0.3-1.2,0.4-2,0.4c-0.7,0-1.4-0.1-1.9-0.4
		c-0.6-0.3-1-0.7-1.5-1.2c-0.4-0.5-0.5-1.1-0.7-2c-0.2-0.9,0-2.1,0-3.3v-4.1c0-1.2-0.1-2.4,0.1-3.2c0.2-0.9,0.2-1.5,0.6-2
		s0.9-1,1.4-1.2c0.6-0.3,1.2-0.4,1.9-0.4s1.4,0.1,1.9,0.4c0.6,0.3,1,0.7,1.4,1.2s0.1,0.9,0.3,1.8l4,0.1c0-1.9-0.5-3.8-1.3-4.6
		c-0.8-0.9-1.7-1.5-2.7-2c-1.1-0.4-2.3-0.4-3.6-0.4s-2.6,0.1-3.7,0.6c-1.1,0.4-2,1.1-2.7,2s-1.4,2-1.8,3.3c-0.4,1.3-0.5,2.9-0.5,4.6
		v4.1c0,1.7,0.2,3.2,0.6,4.5c0.4,1.3,1,2.4,1.8,3.2s1.7,1.5,2.7,1.9c1.1,0.4,2.2,0.6,3.5,0.6c1.3,0,2.5-0.2,3.6-0.6
		c1.1-0.4,2-1.1,2.7-1.9c0.8-0.9,1.5-3.3,1.3-4.8"/>
	<path class="st1" d="M171.4,111.9h4.7l-0.2,16l0.1,8.8h-4.6L171.4,111.9z M172.8,111.9h3.7l5.8,19.4l5.5-19.4h3.5l-7.6,24.8h-3.1
		L172.8,111.9z M189,111.9h4.3l0,24.8h-4.6l-0.1-9.1L189,111.9z"/>
	<path class="st1" d="M208.7,119.7l0-0.6c0-1.7-1.1-3.2-2.7-3.6c-0.1,0-0.3-0.1-0.4-0.1l0,0h-4.1v21.3h-4.7v-24.8h8.7
		c1.5,0,2.5,0.2,3.5,0.7c0.9,0.5,1.7,1.2,2.3,2c1,1.4,1.5,3.1,1.5,5c0,1.4-0.2,2.6-0.7,3.7c-0.5,1-1.3,1.8-2.3,2.3
		c-1.3,0.7-2.3,1.2-4,1.2h-5.2v-3.5h3.6c0,0,0,0,0,0c2,0,3.8-0.6,4.3-2.5L208.7,119.7z"/>
	<path class="st1" d="M228.8,111.9v16.4c0,1.2-0.2,2.1-0.5,2.7c-0.3,0.6-0.8,1.1-1.3,1.3c-0.6,0.2-1.9,0.4-2.7,0.4
		c-0.2,0-0.4,0-0.6,0c-0.2,0.6-0.3,1.1-0.6,1.7c-0.1,0.4-0.3,0.7-0.5,1c0,0.5,0,0.4-0.1,0.7c0.7,0,1.2,0.6,1.8,0.6
		c1.5,0,3.7-0.2,4.9-0.6c1.4-0.5,2.4-1.5,3.1-2.7s1.1-2.6,1.1-4.5v-17L228.8,111.9z"/>
	<path class="st1" d="M250.8,111.9v3.5h-15v-3.5H250.8z M245.4,111.9v24.8h-4.3v-24.8H245.4z"/>
	<path class="st1" d="M260.7,116.5l-5.8,20.3h-4.1l7.5-24.8h2.6L260.7,116.5z M265.3,127.9v2.4h-11v-2.4H265.3z M265.2,136.7
		l-5.7-20.3l-0.3-4.5h2.6l7.6,24.8H265.2z"/>
	<path class="st1" d="M295.5,111.9v24.8H291v-24.8H295.5z"/>
	<polygon class="st1" points="314,104.6 309.2,104.6 306.6,108.4 310.1,108.4 	"/>
	<path class="st1" d="M337,111.9v24.8h-3.9l-8.5-17.2v17.2h-3.9v-24.8h3.9l8.6,17.3v-17.3H337z"/>
	<path class="st1" d="M316.2,122.4v4.1c0,1.7-0.2,3.2-0.6,4.5c-0.4,1.3-1,2.4-1.7,3.2c-0.8,0.9-1.7,1.5-2.7,1.9
		c-1.1,0.4-2.3,0.6-3.6,0.6c-1.3,0-2.5-0.2-3.5-0.6c-1.1-0.4-2-1.1-2.7-1.9c-0.8-0.9-1.4-1.9-1.8-3.2c-0.4-1.3-0.6-2.8-0.6-4.5v-4.1
		c0-1.7,0-3.3,0.5-4.6c0.4-1.3,1-2.4,1.8-3.3c0.8-0.9,1.7-1.5,2.7-2c1.1-0.4,2.4-0.6,3.7-0.6c1.3,0,2.5,0,3.6,0.4
		c1.1,0.4,2,1.1,2.7,2c0.8,0.9,1.3,2,1.8,3.3C316.1,118.9,316.2,120.6,316.2,122.4z M311.7,126.4v-4.1c0-1.2,0.1-2.3-0.1-3.2
		c-0.2-0.9-0.3-1.5-0.7-2.1c-0.4-0.6-0.9-1-1.4-1.2c-0.6-0.3-1.2-0.4-1.9-0.4c-0.7,0-1.4,0.1-1.9,0.4c-0.6,0.3-1,0.7-1.4,1.2
		c-0.4,0.6-0.4,1.2-0.6,2s-0.1,2-0.1,3.2v4.1c0,1.2-0.2,2.4,0,3.3c0.2,0.9,0.3,1.5,0.7,2c0.4,0.5,0.9,1,1.5,1.2
		c0.6,0.3,1.2,0.4,1.9,0.4c0.7,0,1.4-0.1,2-0.4c0.6-0.3,1-0.7,1.4-1.2c0.4-0.5,0.5-1.1,0.7-2C311.8,128.9,311.7,127.6,311.7,126.4z"
		/>
	<path class="st1" d="M220.8,111.9v16.4c0,1.2,0.2,2.1,0.5,2.7c0.3,0.6,0.8,1.1,1.3,1.3c0.6,0.2,1.9,0.4,2.7,0.4c0.2,0,0.4,0,0.6,0
		c0.2,0.6,0.3,1.1,0.6,1.7c0.1,0.4,0.3,0.7,0.5,1c0,0.5,0.1,0.5,0.3,0.9c-0.7,0-1.4,0.5-2,0.5c-1.5,0-3.7-0.2-4.9-0.6
		c-1.4-0.5-2.4-1.5-3.1-2.7s-1.1-2.6-1.1-4.5v-17L220.8,111.9z"/>
	<path class="st3" d="M139,136.9c-0.3,0-0.7-0.1-1-0.2C138.3,136.8,138.6,136.9,139,136.9z"/>
	<path class="st3" d="M139.5,111.5c-0.6,0-1.1,0.1-1.6,0.2c0.5-0.2,1-0.3,1.5-0.3C139.4,111.4,139.4,111.4,139.5,111.5z"/>
	<path class="st3" d="M135.9,130.2c-0.1-0.3-0.1-0.7-0.1-1c0,0,0-0.1,0-0.2C135.8,129.5,135.9,129.8,135.9,130.2z"/>
	<path class="st3" d="M137.2,136.5c0.2,0.1,0.5,0.2,0.8,0.3C137.7,136.7,137.5,136.6,137.2,136.5
		C137.2,136.5,137.2,136.5,137.2,136.5z"/>
	<path class="st3" d="M139,136.9c-0.3,0-0.7-0.1-1-0.2C138.3,136.8,138.6,136.9,139,136.9z"/>
	<path class="st3" d="M135.8,129.2c0,0,0-0.1,0-0.2"/>
</g>
<g id="Capa_4">
	<polygon class="st2" points="178.8,32.7 183,25 173.7,9.9 126.1,92.4 221.7,92.4 210.3,72.8 202.3,73.2 209.1,84.6 139.2,84.7 
		173.7,24.5 	"/>
</g>
<g id="Capa_5">
	<path class="st1" d="M174.9,39.8c4.9,0.6,8.7,4.8,8.7,9.9c0,5.5-4.3,9.8-9.7,9.9h-0.1c-5.3,0.1-9.7,4.3-9.7,9.6
		c0,5.2,4.1,9.2,9.2,9.5c0.2,0,0.4,0,0.6,0c0.2,0,0.4,0,0.6,0c10.5-0.3,18.9-8.9,18.9-19.5C193.4,48.8,185.2,40.3,174.9,39.8z
		 M173.9,72.3c-1.7,0-3-1.4-3-3c0-1.7,1.4-3,3-3c1.7,0,3,1.4,3,3C176.9,71,175.6,72.3,173.9,72.3z"/>
	<circle class="st1" cx="173.7" cy="49.5" r="3"/>
	<path class="st2" d="M35.1,158.2c0.1-0.7,0.3-1.3,0.7-1.9c0.3-0.5,0.7-0.8,1.2-0.8c0.6,0,1.2,0.4,1.3,1c0,0.4-0.1,0.8,0,1.4l1.5,0
		c0-0.3,0.1-1.1,0.1-1.4c-0.2-1-0.3-1-0.6-1.4c-0.3-0.4-0.5-0.5-0.8-0.7c-0.4-0.2-0.8-0.3-1.2-0.3c-0.5,0-1-0.1-1.7,0.6
		c-0.4,0.4-0.9,0.9-1.2,1.6c-0.4,0.6-0.6,1.3-0.7,2l-1.2,7.5c-0.1,0.6-0.1,1.3,0.2,1.8c0.1,0.3,0.3,0.6,0.4,0.8c0.5,0.7,1.3,1,2.1,1
		c0.6,0,0.7,0,1.2-0.3c0.5-0.3,0.8-0.6,1.3-1.3c0.2-0.4,0.5-1.5,0.4-2.7l-1.6,0c0,0.7-0.1,1.1-0.2,1.5c-0.1,0.3-0.5,1.2-1.1,1.2
		c-1.1,0-1.2-0.5-1.2-1.1c0-0.8,0-1.6,0.2-2.3L35.1,158.2z"/>
	<path class="st2" d="M68.2,158.2c0.1-0.7,0.3-1.3,0.7-1.9c0.3-0.5,0.7-0.8,1.2-0.8c0.6,0,1.2,0.4,1.3,1c0,0.4-0.1,0.8,0,1.4l1.5,0
		c0-0.3,0.1-1.1,0.1-1.4c-0.2-1-0.3-1-0.6-1.4c-0.3-0.4-0.5-0.5-0.8-0.7c-0.4-0.2-0.8-0.3-1.2-0.3c-0.5,0-1-0.1-1.7,0.6
		c-0.4,0.4-0.9,0.9-1.2,1.6c-0.4,0.6-0.6,1.3-0.7,2l-1.2,7.5c-0.1,0.6-0.1,1.3,0.2,1.8c0.1,0.3,0.3,0.6,0.4,0.8c0.5,0.7,1.3,1,2.1,1
		c0.6,0,0.7,0,1.2-0.3c0.5-0.3,0.8-0.6,1.3-1.3c0.2-0.4,0.5-1.5,0.4-2.7l-1.6,0c0,0.7-0.1,1.1-0.2,1.5c-0.1,0.3-0.5,1.2-1.1,1.2
		c-1.1,0-1.2-0.5-1.2-1.1c0-0.8,0-1.6,0.2-2.3L68.2,158.2z"/>
	<path class="st2" d="M39.2,169.3l5.6-15.1l2.1,0l0,15l-1.7,0l0.3-13.2l0.1,0l-4.7,13.2L39.2,169.3z M41.8,164.8l0.3-1.9l3.6,0
		l-0.3,1.9L41.8,164.8z"/>
	<path class="st2" d="M55.5,169.3l5.6-15.1l2.1,0l0,15l-1.7,0l0.3-13.2l0.1,0l-4.7,13.2L55.5,169.3z M58.1,164.8l0.3-1.9l3.6,0
		l-0.3,1.9L58.1,164.8z"/>
	<path class="st2" d="M48.6,169.3l2.5-15.1l3.3,0c0.8,0,1.4,0.2,1.8,0.6c0.4,0.4,0.7,1,0.9,1.8c0.1,0.8,0.2,1.7,0,2.7
		c-0.2,1-0.4,1.2-1.2,2c-0.7,0.8-1.6,1.2-2.8,1.2l-1.8,0l-1.2,6.8L48.6,169.3z M51.6,160.5l1.8,0c0.6,0,1.3-0.1,1.7-0.6
		c0.4-0.5,0.6-0.6,0.8-1.7c0-0.2,0-1.3-0.3-1.7c-0.3-0.4-0.9-0.5-1.5-0.5l-1.8,0L51.6,160.5z"/>
	<path class="st2" d="M73,169.3l2.5-15.1l1.6,0l-2.5,15.1L73,169.3z"/>
	<path class="st2" d="M95.7,158.1c0.1-0.7,0.3-1.3,0.7-1.9c0.3-0.5,0.7-0.8,1.2-0.8c0.6,0,1.2,0.4,1.3,1c0,0.4-0.1,0.8,0,1.4l1.5,0
		c0-0.3,0.1-1.1,0.1-1.4c-0.2-1-0.3-1-0.6-1.4c-0.3-0.4-0.5-0.5-0.8-0.7c-0.4-0.2-0.8-0.3-1.2-0.3c-0.5,0-1-0.1-1.7,0.6
		c-0.4,0.4-0.9,0.9-1.2,1.6c-0.4,0.6-0.6,1.3-0.7,2l-1.2,7.5c-0.1,0.6-0.1,1.3,0.2,1.8c0.1,0.3,0.3,0.6,0.4,0.8c0.5,0.7,1.3,1,2.1,1
		c0.6,0,0.7,0,1.2-0.3c0.5-0.3,0.8-0.6,1.3-1.3c0.2-0.4,0.5-1.5,0.4-2.7l-1.6,0c0,0.7-0.1,1.1-0.2,1.5c-0.1,0.3-0.5,1.2-1.1,1.2
		c-1.1,0-1.2-0.5-1.2-1.1c0-0.8,0-1.6,0.2-2.3L95.7,158.1z"/>
	<path class="st2" d="M297.9,158.2c0.1-0.7,0.3-1.3,0.7-1.9c0.3-0.5,0.7-0.8,1.2-0.8c0.6,0,1.2,0.4,1.3,1c0,0.4-0.1,0.8,0,1.4l1.5,0
		c0-0.3,0.1-1.1,0.1-1.4c-0.2-1-0.3-1-0.6-1.4c-0.3-0.4-0.5-0.5-0.8-0.7c-0.4-0.2-0.8-0.3-1.2-0.3c-0.5,0-1-0.1-1.7,0.6
		c-0.4,0.4-0.9,0.9-1.2,1.6c-0.4,0.6-0.6,1.3-0.7,2l-1.2,7.5c-0.1,0.6-0.1,1.3,0.2,1.8c0.1,0.3,0.3,0.6,0.4,0.8c0.5,0.7,1.3,1,2.1,1
		c0.6,0,0.7,0,1.2-0.3c0.5-0.3,0.8-0.6,1.3-1.3c0.2-0.4,0.5-1.5,0.4-2.7l-1.6,0c0,0.7-0.1,1.1-0.2,1.5c-0.1,0.3-0.5,1.2-1.1,1.2
		c-1.1,0-1.2-0.5-1.2-1.1c0-0.8,0-1.6,0.2-2.3L297.9,158.2z"/>
	<g>
		<path class="st2" d="M106.9,168.2c0-0.2,0.1-0.3,0.2-0.4c-0.4-0.2-0.5-0.6-0.5-1c0-0.8,0-1.6,0.2-2.3l1-6.2
			c0.1-0.7,0.3-1.3,0.7-1.9c0.3-0.5,0.7-0.8,1.2-0.8c0.5,0,1,0.3,1.3,0.7c0.3-0.4,0.5-0.8,0.9-1.1c-0.3-0.4-0.5-0.5-0.8-0.7
			c-0.4-0.2-0.8-0.3-1.2-0.3c-0.5,0-1-0.1-1.7,0.6c-0.4,0.4-0.9,0.9-1.2,1.6c-0.4,0.6-0.6,1.3-0.7,2l-1.2,7.5
			c-0.1,0.6-0.1,1.3,0.2,1.8c0.1,0.3,0.3,0.6,0.4,0.8c0.2,0.3,0.7,0.5,1,0.7C106.7,168.9,106.8,168.6,106.9,168.2z"/>
		<path class="st2" d="M112.5,155.9c-0.1-0.3-0.3-0.6-0.4-0.8c-0.4-0.6-1.1-0.7-1.9-0.8c0.1,0.5,0.2,0.9,0.2,1.4
			c0.6,0.1,0.7,0.6,0.7,1.1c0,0.8-0.1,1.6-0.2,2.3l-1.1,6.2c-0.1,0.7-0.4,1.3-0.8,1.9c-0.3,0.5-0.7,0.7-1.2,0.7
			c-0.5,0-0.9-0.2-1.1-0.6c-0.3,0.4-0.7,0.7-1.1,1c0.2,0.4,0.5,0.5,0.8,0.7c0.4,0.2,0.8,0.3,1.2,0.3c0.5,0,1,0.1,1.7-0.6
			c0.5-0.4,0.9-0.9,1.2-1.6c0.4-0.6,0.6-1.3,0.7-2l1.3-7.5C112.7,157.1,112.7,156.5,112.5,155.9z"/>
	</g>
	<g>
		<path class="st2" d="M174.3,168.2c0-0.2,0.1-0.3,0.2-0.4c-0.4-0.2-0.5-0.6-0.5-1c0-0.8,0-1.6,0.2-2.3l1-6.2
			c0.1-0.7,0.3-1.3,0.7-1.9c0.3-0.5,0.7-0.8,1.2-0.8c0.5,0,1,0.3,1.3,0.7c0.3-0.4,0.5-0.8,0.9-1.1c-0.3-0.4-0.5-0.5-0.8-0.7
			c-0.4-0.2-0.8-0.3-1.2-0.3c-0.5,0-1-0.1-1.7,0.6c-0.4,0.4-0.9,0.9-1.2,1.6c-0.4,0.6-0.6,1.3-0.7,2l-1.2,7.5
			c-0.1,0.6-0.1,1.3,0.2,1.8c0.1,0.3,0.3,0.6,0.4,0.8c0.2,0.3,0.7,0.5,1,0.7C174.1,168.9,174.1,168.6,174.3,168.2z"/>
		<path class="st2" d="M179.8,155.9c-0.1-0.3-0.3-0.6-0.4-0.8c-0.4-0.6-1.1-0.7-1.9-0.8c0.1,0.5,0.2,0.9,0.2,1.4
			c0.6,0.1,0.7,0.6,0.7,1.1c0,0.8-0.1,1.6-0.2,2.3l-1.1,6.2c-0.1,0.7-0.4,1.3-0.8,1.9c-0.3,0.5-0.7,0.7-1.2,0.7
			c-0.5,0-0.9-0.2-1.1-0.6c-0.3,0.4-0.7,0.7-1.1,1c0.2,0.4,0.5,0.5,0.8,0.7c0.4,0.2,0.8,0.3,1.2,0.3c0.5,0,1,0.1,1.7-0.6
			c0.5-0.4,0.9-0.9,1.2-1.6c0.4-0.6,0.6-1.3,0.7-2l1.3-7.5C180,157.1,180,156.5,179.8,155.9z"/>
	</g>
	<g>
		<path class="st2" d="M315.4,155.9c-0.1-0.3-0.3-0.6-0.4-0.8c-0.2-0.3-0.5-0.5-0.8-0.6c0,0-0.1,0-0.1,0c-0.4-0.2-0.8-0.3-1.2-0.2
			c-0.5,0-1-0.1-1.7,0.6c-0.4,0.4-0.8,0.9-1.2,1.6c-0.3,0.6-0.6,1.3-0.7,2l-1.2,7.5c-0.1,0.6-0.1,1.2,0.2,1.8
			c0.1,0.3,0.3,0.6,0.4,0.8c0.1,0.1,0.1,0.1,0.2,0.2c0,0,0.1,0.1,0.1,0.1c0,0,0.1,0.1,0.2,0.1c0.2,0.1,0.4,0.2,0.6,0.3
			c0.3,0.1,0.6,0.2,0.9,0.1c0.5,0,1,0.1,1.7-0.6c0.5-0.4,0.9-0.9,1.2-1.6c0.4-0.6,0.6-1.3,0.7-2l1.2-6.6
			C315.5,158,315.6,156.5,315.4,155.9z M309.7,167.5c-0.1-0.2-0.1-0.5-0.1-0.7c0-0.8,0-1.6,0.2-2.3l1-6.2c0.1-0.7,0.3-1.3,0.8-1.9
			c0.3-0.5,0.7-0.8,1.2-0.8c0.3,0,0.7,0.2,1,0.4c0,0,0,0,0,0c0.2,0.3,0.2,0.9,0.2,1.2c0,0.8-0.1,1.2-0.2,1.9l-1.1,6.2
			c-0.1,0.7-0.4,1.3-0.8,1.9c-0.3,0.5-0.7,0.8-1.2,0.7c-0.2,0-0.4-0.1-0.6-0.2c0,0,0,0,0,0"/>
		<path class="st2" d="M309.6,169.2c-0.1,0-0.2-0.1-0.3-0.1c-0.1-0.1-0.2-0.1-0.3-0.2C309.2,169.1,309.4,169.2,309.6,169.2z"/>
	</g>
	<path class="st2" d="M83,169.3l5.6-15.1l2.1,0l0,15l-1.7,0l0.3-13.2l0.1,0l-4.7,13.2L83,169.3z M85.6,164.8l0.3-1.9l3.6,0l-0.3,1.9
		L85.6,164.8z"/>
	<path class="st2" d="M138.5,169.4l5.6-15.1l2.1,0l0,15l-1.7,0l0.3-13.2l0.1,0l-4.7,13.2L138.5,169.4z M141,164.8l0.3-1.9l3.6,0
		l-0.3,1.9L141,164.8z"/>
	<path class="st2" d="M192.6,169.3l5.6-15.1l2.1,0l0,15l-1.7,0l0.3-13.2l0.1,0l-4.7,13.2L192.6,169.3z M195.2,164.7l0.3-1.9l3.6,0
		l-0.3,1.9L195.2,164.7z"/>
	<path class="st2" d="M100.5,169.3l2.5-15.1l1.6,0l-2.5,15.1L100.5,169.3z"/>
	<path class="st2" d="M78.5,156.2l0.3-1.9l6.3,0.1l-0.3,1.9L78.5,156.2z M78.6,169.4l2.5-15l1.5,0l-2.5,15L78.6,169.4z"/>
	<path class="st2" d="M113.1,169.4l3.3-15.2l2,0l0.6,13.3l-0.4-0.2l2.9-13.1l1.5,0l-3.5,15l-2,0l-0.6-13.4l0.3,0.3l-2.7,13.2
		L113.1,169.4z"/>
	<path class="st2" d="M243.7,169.4l3.3-15.2l2,0l0.6,13.3l-0.4-0.2l2.9-13.1l1.5,0l-3.5,15l-2,0l-0.6-13.4l0.3,0.3l-2.7,13.2
		L243.7,169.4z"/>
	<polygon class="st2" points="111.9,150.8 110.4,152.9 111.9,152.9 113.4,150.8 	"/>
	<path class="st2" d="M156.3,169.4l3.2-15l5.2,0l-0.4,1.9l-3.7,0l-2.4,11.2l4.3,0l-0.4,1.9L156.3,169.4z M157.9,162.2l0.4-1.7l4.5,0
		l-0.4,1.7L157.9,162.2z"/>
	<path class="st2" d="M236.5,169.4l3.2-15l5.2,0l-0.4,1.9l-3.7,0l-2.4,11.2l4.3,0l-0.4,1.9L236.5,169.4z M238.1,162.2l0.4-1.7l4.5,0
		l-0.4,1.7L238.1,162.2z"/>
	<path class="st2" d="M181,169.4l2.3-15l3.3,0c0.6,0,1,0.2,1.4,0.5c0.4,0.3,0.6,0.8,0.7,1.5c0.1,0.7,0.1,1.5-0.1,2.6
		c-0.2,1-0.2,1.1-0.6,1.7c-0.4,0.6-0.8,1-1.3,1.3c-0.5,0.3-1,0.4-1.6,0.4l-1.5,0l-1.2,7L181,169.4z M183.9,160.5l1.6,0
		c0.3,0,0.6-0.1,0.8-0.2c0.3-0.1,0.5-0.4,0.7-0.8c0.2-0.4,0.1-0.1,0.2-0.7c0.1-0.6,0.2-1.1,0.1-1.5c-0.1-0.4-0.2-0.6-0.4-0.8
		s-0.4-0.2-0.8-0.2l-1.8,0L183.9,160.5z M185.3,169.4l0.6-5.3c0-0.4,0-0.9-0.2-1.3l-0.4-1.1l1.4-0.2l0,0c0.4,0.8,0.6,1.8,0.5,2.7
		l-0.6,5.2L185.3,169.4z"/>
	<path class="st2" d="M274.2,169l2.3-15l3.3,0c0.6,0,1,0.2,1.4,0.5c0.4,0.3,0.6,0.8,0.7,1.5s0.1,1.5-0.1,2.6c-0.2,1-0.2,1.1-0.6,1.7
		c-0.4,0.6-0.8,1-1.3,1.3c-0.5,0.3-1,0.4-1.6,0.4l-1.5,0l-1.2,7L274.2,169z M277.1,160.1l1.6,0c0.3,0,0.6-0.1,0.8-0.2
		c0.3-0.1,0.5-0.4,0.7-0.8c0.2-0.4,0.1-0.1,0.2-0.7c0.1-0.6,0.2-1.1,0.1-1.5c-0.1-0.4-0.2-0.6-0.4-0.8c-0.2-0.2-0.4-0.2-0.8-0.2
		l-1.8,0L277.1,160.1z M278.5,169l0.6-5.3c0-0.4,0-0.9-0.2-1.3l-0.4-1.1l1.4-0.2l0,0c0.4,0.8,0.6,1.8,0.5,2.7l-0.6,5.2L278.5,169z"
		/>
	<path class="st2" d="M188.7,169.3l3.2-15l1.5,0l-3.2,15L188.7,169.3z M193.3,153.5l-0.2-1.3l1.8-1.3l1.3,0.5L193.3,153.5z"/>
	<path class="st2" d="M218.6,169.4l3.2-15l3.8,0c0.5,0,1,0.2,1.3,0.5c0.3,0.3,0.6,0.8,0.7,1.3c0.1,0.6,0.1,1.2-0.1,1.9
		c-0.1,0.7-0.4,1.2-0.7,1.8c-0.3,0.5-0.6,0.9-1,1.2c-0.4,0.3-0.8,0.4-1.2,0.5l-0.8-0.6l0.5,0c1,0,1.7,0.4,2,1.1
		c0.3,0.8,0.3,1.8,0.1,3.2c-0.3,1.2-0.8,2.2-1.4,3c-0.7,0.8-1.5,1.1-2.5,1.1L218.6,169.4z M220.5,167.6l2,0c0.6,0,1.1-0.2,1.5-0.7
		s0.7-1.1,0.9-2.1c0.2-1,0.2-1.7,0-2c-0.2-0.4-0.6-0.6-1.2-0.6l-2,0L220.5,167.6z M222,160.4l1.9,0c0.4,0,0.8-0.2,1.1-0.5
		c0.3-0.3,0.6-0.9,0.8-1.7c0.1-0.5,0.1-0.9,0.1-1.2c-0.1-0.3-0.2-0.5-0.4-0.6c-0.2-0.1-0.4-0.2-0.7-0.2l-1.9,0L222,160.4z"/>
	<path class="st2" d="M230.8,169.6c-0.7,0-1.2-0.2-1.7-0.6c-0.5-0.4-0.7-1.1-0.9-1.9c-0.1-0.9-0.1-2,0.2-3.4l2-9.4l1.5,0l-2.1,9.8
		c-0.2,0.8-0.2,1.5-0.2,2c0.1,0.5,0.2,0.9,0.5,1.2c0.3,0.3,0.6,0.4,1,0.4c0.6,0,1.1-0.3,1.6-0.9c0.5-0.6,0.9-1.5,1.1-2.7l2.1-9.8
		l1.5,0l-2,9.4c-0.3,1.4-0.7,2.6-1.1,3.4c-0.5,0.9-1,1.5-1.6,1.9C232.2,169.4,231.5,169.6,230.8,169.6z"/>
	<path class="st2" d="M284.1,169.5l0.1-15l1.5,0l-0.2,13l-0.2,0l4.1-13l1.6,0l-5.1,15L284.1,169.5z"/>
	<path class="st2" d="M290.3,169.4l3.2-15l1.5,0l-3.2,15L290.3,169.4z"/>
	<path class="st2" d="M302.7,169.4l3.2-15l1.5,0l-3.2,15L302.7,169.4z"/>
	<path class="st2" d="M154.2,157.9h1.5c0,0,0.4-4-2.4-3.9c-3.5,0.2-4.3,3.7-2.8,6.1c1.3,2.2,3.6,4.4,2.2,6.7c-0.6,0.9-1.8,1-2.4,0.2
		c-0.3-0.4-0.5-1.1-0.4-2.2h-1.5c0,0-0.7,3,1.6,4.3c0.8,0.4,1.4,0.5,2.2,0.2c1.3-0.4,3.4-1.7,2.4-5.6c0,0,0.1-0.9-2.4-4.3
		c-0.5-0.6-0.7-1.6-0.5-2.3c0.3-0.8,0.9-1.5,1.5-1.5C153.1,155.6,154.4,155.6,154.2,157.9z"/>
	<path class="st2" d="M266.1,169.2l3.2-15l5.2,0l-0.4,1.9l-3.7,0l-2.4,11.2l4.3,0l-0.4,1.9L266.1,169.2z M267.7,162l0.4-1.7l4.5,0
		l-0.4,1.7L267.7,162z"/>
	<path class="st2" d="M264,157.7h1.5c0,0,0.4-4-2.4-3.9c-3.5,0.2-4.3,3.7-2.8,6.1c1.3,2.2,3.6,4.4,2.2,6.7c-0.6,0.9-1.8,1-2.4,0.2
		c-0.3-0.4-0.5-1.1-0.4-2.2H258c0,0-0.7,3,1.6,4.3c0.8,0.4,1.4,0.5,2.2,0.2c1.3-0.4,3.4-1.7,2.4-5.6c0,0,0.1-0.9-2.4-4.3
		c-0.5-0.6-0.7-1.6-0.5-2.3c0.3-0.8,0.9-1.5,1.5-1.5C262.9,155.4,264.2,155.4,264,157.7z"/>
	<path class="st2" d="M170.3,158h1.5c0,0,0.4-4-2.4-3.9c-3.5,0.2-4.3,3.7-2.8,6.1c1.3,2.2,3.6,4.4,2.2,6.7c-0.6,0.9-1.8,1-2.4,0.2
		c-0.3-0.4-0.5-1.1-0.4-2.2h-1.5c0,0-0.7,3,1.6,4.3c0.8,0.4,1.4,0.5,2.2,0.2c1.3-0.4,3.4-1.7,2.4-5.6c0,0,0.1-0.9-2.4-4.3
		c-0.5-0.6-0.7-1.6-0.5-2.3c0.3-0.8,0.9-1.5,1.5-1.5C169.2,155.7,170.6,155.7,170.3,158z"/>
</g>
</svg>
