<?xml version="1.0" encoding="utf-8"?>
<!-- Generator: Adobe Illustrator 28.0.0, SVG Export Plug-In . SVG Version: 6.00 Build 0)  -->
<svg version="1.1" id="Capa_1" xmlns="http://www.w3.org/2000/svg" xmlns:xlink="http://www.w3.org/1999/xlink" x="0px" y="0px"
	 viewBox="0 0 192.6 163.7" style="enable-background:new 0 0 192.6 163.7;" xml:space="preserve">
<style type="text/css">
	.st0{fill:#5EC5EB;}
	.st1{fill:#3B4394;}
</style>
<polygon class="st0" points="105.4,50.4 112.1,38.1 97.3,13.9 21,145.9 174,145.9 155.7,114.6 143,115.3 153.8,133.4 42.1,133.6 
	97.3,37.3 "/>
<path class="st1" d="M99.1,61.7c7.9,0.9,14,7.7,14,15.9c0,8.8-6.9,15.7-15.5,15.8h-0.2c-8.5,0.1-15.4,6.9-15.4,15.4
	c0,8.3,6.5,14.7,14.7,15.2c0.3,0,0.6,0,1,0c0.3,0,0.6,0,1,0c16.8-0.5,30.2-14.3,30.2-31.1C128.7,76.2,115.6,62.5,99.1,61.7z
	 M97.5,113.8c-2.7,0-4.8-2.2-4.8-4.8c0-2.7,2.2-4.8,4.8-4.8c2.7,0,4.8,2.2,4.8,4.8C102.4,111.6,100.2,113.8,97.5,113.8z"/>
<circle class="st1" cx="97.3" cy="77.4" r="4.8"/>
</svg>
