<svg width="82" height="72" viewBox="0 0 82 72" fill="none" xmlns="http://www.w3.org/2000/svg">
<g clip-path="url(#clip0_5979_4151)">
<path d="M14.5116 51.3913C18.6168 44.5043 24.6993 34.1739 28.0261 28.4348C41.3173 5.49392 39.942 6.89218 43.3206 12.8348C46.0038 17.5565 46.2062 19.1948 44.3638 21.2452C43.0507 22.6957 43.0507 22.6957 41.9816 21C40.7049 18.9913 40.4039 18.9339 39.0961 20.4783C37.1343 22.8 16.9924 57.9235 17.3349 58.4348C17.802 59.1287 62.0405 59.1496 62.876 58.4609C63.3172 58.0957 63.094 57.313 62.0405 55.5339C59.8452 51.8139 61.2516 49.9044 64.8741 51.6887C66.3636 52.4243 72.8665 63.6626 72.1452 64.2574C71.8545 64.4974 57.0219 64.6957 39.1791 64.6957C21.3415 64.6957 6.81504 64.5183 6.89289 64.3043C6.97593 64.0904 10.4012 58.2783 14.5116 51.3913Z" fill="white"/>
<path d="M40.0507 41.8224C46.6574 39.9963 48.6866 35.2433 44.6385 31.0485C42.5834 28.9198 42.8117 28.3563 45.3755 29.2068C55.4594 32.5511 56.0718 48.8294 46.3149 54.0468C44.597 54.965 43.1335 55.3042 40.9226 55.3042C38.4315 55.3042 37.5855 55.0589 36.1998 53.9476C30.901 49.6746 32.7537 43.8311 40.0507 41.8224ZM42.3654 49.2207C42.9518 46.8729 39.5317 45.4746 38.3536 47.5876C38.146 47.9581 38.0734 48.7929 38.1927 49.4346C38.364 50.3842 38.748 50.6085 40.2116 50.6085C41.7322 50.6085 42.0747 50.3894 42.3654 49.2207Z" fill="white"/>
<path d="M39.9938 34.4346C40.6529 34.4346 41.0007 34.7946 41.0007 35.478C41.0007 36.172 40.6529 36.5215 39.9627 36.5215C39.3918 36.5215 38.795 36.2815 38.6393 35.9894C38.2137 35.1859 38.8624 34.4346 39.9938 34.4346Z" fill="white"/>
</g>
<defs>
<clipPath id="clip0_5979_4151">
<rect width="82" height="72" fill="white"/>
</clipPath>
</defs>
</svg>
